<?xml version="1.0" encoding="UTF-8" standalone="no"?>
<!-- Generator: Adobe Illustrator 16.0.0, SVG Export Plug-In . SVG Version: 6.00 Build 0)  -->

<svg
   xmlns:dc="http://purl.org/dc/elements/1.1/"
   xmlns:cc="http://creativecommons.org/ns#"
   xmlns:rdf="http://www.w3.org/1999/02/22-rdf-syntax-ns#"
   xmlns:svg="http://www.w3.org/2000/svg"
   xmlns="http://www.w3.org/2000/svg"
   xmlns:sodipodi="http://sodipodi.sourceforge.net/DTD/sodipodi-0.dtd"
   xmlns:inkscape="http://www.inkscape.org/namespaces/inkscape"
   version="1.1"
   id="Layer_1"
   x="0px"
   y="0px"
   width="85.863px"
   height="58.963px"
   viewBox="0 0 85.863 58.963"
   enable-background="new 0 0 85.863 58.963"
   xml:space="preserve"
   inkscape:version="0.48.4 r9939"
   sodipodi:docname="ba-logo-lema.svg"><metadata
     id="metadata4131"><rdf:RDF><cc:Work
         rdf:about=""><dc:format>image/svg+xml</dc:format><dc:type
           rdf:resource="http://purl.org/dc/dcmitype/StillImage" /></cc:Work></rdf:RDF></metadata><defs
     id="defs4129" /><sodipodi:namedview
     pagecolor="#ffffff"
     bordercolor="#666666"
     borderopacity="1"
     objecttolerance="10"
     gridtolerance="10"
     guidetolerance="10"
     inkscape:pageopacity="0"
     inkscape:pageshadow="2"
     inkscape:window-width="640"
     inkscape:window-height="480"
     id="namedview4127"
     showgrid="false"
     inkscape:zoom="5.5835273"
     inkscape:cx="27.510022"
     inkscape:cy="0.95159546"
     inkscape:window-x="75"
     inkscape:window-y="34"
     inkscape:window-maximized="0"
     inkscape:current-layer="g4089" /><g
     id="g4089"><path
       fill="#414042"
       d="M83.411,36.934L67.496,6.182c-1.378-2.727-4.185-4.602-7.448-4.602h-0.007h-0.006   c-3.261,0-6.071,1.875-7.452,4.602L41.384,27.826c-1.248-2.223-3.246-3.973-5.652-4.91c2.688-1.943,4.438-5.109,4.438-8.688   c0-4.139-2.352-7.727-5.795-9.501c-3.035-1.591-6.486-2.493-10.154-2.493H7.468c-3.443,0-6.229,2.783-6.229,6.225v31.18   c0,3.437,2.785,6.22,6.229,6.22h6.049h12.072c3.488,0,6.82-0.718,9.831-2.003l1.155-0.567c0.064-0.028,0.13-0.059,0.188-0.087   c1.086,1.803,3.062,3.018,5.33,3.018c2.523,0,4.689-1.498,5.67-3.661c0.49-1.13,1.59-1.944,2.889-2.003h18.779   c1.295,0.059,2.398,0.873,2.889,2.003c0.977,2.163,3.152,3.661,5.672,3.661c3.441,0,6.221-2.789,6.221-6.225   C84.212,38.881,83.933,37.83,83.411,36.934"
       id="path4091"
       style="fill:#ffffff" /><g
       id="g4093"
       style="fill:#ffffff"><path
         fill="#414042"
         d="M4.417,57.277H3.169l-2.004-6.1h1.23l1.398,4.702l1.389-4.702h1.23L4.417,57.277z"
         id="path4095"
         style="fill:#ffffff" /><path
         fill="#414042"
         d="M10.669,57.277H9.563v-0.483c-0.353,0.369-0.835,0.58-1.389,0.58c-1.178,0-2.153-1.02-2.153-2.355    c0-1.345,0.976-2.364,2.153-2.364c0.554,0,1.036,0.211,1.389,0.58v-0.483h1.106V57.277z M8.35,53.727    c-0.642,0-1.161,0.563-1.161,1.301c0,0.721,0.52,1.275,1.161,1.275s1.16-0.572,1.16-1.275C9.51,54.307,8.991,53.727,8.35,53.727z"
         id="path4097"
         style="fill:#ffffff" /><path
         fill="#414042"
         d="M18.514,57.277h-1.16v-2.646c0-0.264-0.088-0.896-0.844-0.896c-0.519,0-0.88,0.387-0.88,0.896v2.646    h-1.168v-2.646c0-0.264-0.08-0.896-0.844-0.896c-0.51,0-0.87,0.387-0.87,0.896v2.646h-1.169v-4.526h1.116v0.439    c0.28-0.343,0.677-0.554,1.169-0.554c0.563,0,1.037,0.237,1.354,0.642c0.324-0.396,0.8-0.642,1.38-0.642    c1.213,0,1.916,0.809,1.916,1.995V57.277z"
         id="path4099"
         style="fill:#ffffff" /><path
         fill="#414042"
         d="M23.669,55.019c0,1.354-1.027,2.364-2.284,2.364s-2.276-1.011-2.276-2.364s1.02-2.382,2.276-2.382    S23.669,53.665,23.669,55.019z M22.501,55.027c0-0.782-0.501-1.327-1.116-1.327s-1.116,0.545-1.116,1.327    c0,0.765,0.501,1.292,1.116,1.292S22.501,55.792,22.501,55.027z"
         id="path4101"
         style="fill:#ffffff" /><path
         fill="#414042"
         d="M26.126,57.383c-1.151,0-2.004-0.606-2.145-1.582h1.178c0.158,0.387,0.624,0.527,0.967,0.527    c0.465,0,0.817-0.141,0.817-0.404c0-0.255-0.159-0.36-0.95-0.483c-0.808-0.123-1.889-0.343-1.889-1.354    c0-0.712,0.623-1.45,1.934-1.45c1.037,0,1.811,0.563,1.959,1.416h-1.203c-0.07-0.212-0.325-0.379-0.756-0.379    c-0.537,0-0.756,0.193-0.756,0.36c0,0.237,0.334,0.316,0.896,0.404c1.125,0.185,1.934,0.431,1.934,1.415    C28.112,56.75,27.286,57.383,26.126,57.383z"
         id="path4103"
         style="fill:#ffffff" /><path
         fill="#414042"
         d="M34.28,57.277h-2.973v-6.1h2.813c1.222,0,1.837,0.633,1.837,1.652c0,0.51-0.219,0.923-0.598,1.195    c0.518,0.272,0.835,0.765,0.835,1.459C36.195,56.574,35.457,57.277,34.28,57.277z M32.469,52.232v1.345h1.652    c0.396,0,0.712-0.272,0.712-0.677s-0.273-0.668-0.712-0.668H32.469z M34.095,54.641h-1.626v1.573h1.652    c0.448,0,0.888-0.176,0.888-0.773C35.009,54.931,34.683,54.641,34.095,54.641z"
         id="path4105"
         style="fill:#ffffff" /><path
         fill="#414042"
         d="M40.753,57.277h-1.107v-0.413c-0.281,0.325-0.677,0.519-1.152,0.519c-1.071,0-1.783-0.8-1.783-1.986    v-2.646h1.16v2.646c0,0.255,0.088,0.888,0.844,0.888c0.518,0,0.879-0.387,0.879-0.888v-2.646h1.16V57.277z"
         id="path4107"
         style="fill:#ffffff" /><path
         fill="#414042"
         d="M42.549,55.467c0.149,0.554,0.589,0.896,1.134,0.896c0.387,0,0.766-0.167,0.957-0.527h1.24    c-0.264,0.924-1.064,1.547-2.188,1.547c-1.274,0-2.32-1.055-2.32-2.364s1.046-2.382,2.32-2.382c1.336,0,2.442,1.037,2.276,2.83    H42.549z M44.815,54.518c-0.141-0.527-0.58-0.861-1.133-0.861c-0.527,0-0.949,0.334-1.116,0.861H44.815z"
         id="path4109"
         style="fill:#ffffff" /><path
         fill="#414042"
         d="M50.657,57.277h-1.161v-2.646c0-0.264-0.079-0.896-0.845-0.896c-0.518,0-0.879,0.387-0.879,0.896v2.646    h-1.158v-4.526h1.105v0.439c0.291-0.343,0.688-0.554,1.17-0.554c1.063,0,1.768,0.8,1.768,1.995V57.277z"
         id="path4111"
         style="fill:#ffffff" /><path
         fill="#414042"
         d="M55.811,55.019c0,1.354-1.028,2.364-2.286,2.364c-1.256,0-2.275-1.011-2.275-2.364s1.02-2.382,2.275-2.382    C54.782,52.637,55.811,53.665,55.811,55.019z M54.642,55.027c0-0.782-0.5-1.327-1.117-1.327c-0.615,0-1.115,0.545-1.115,1.327    c0,0.765,0.5,1.292,1.115,1.292C54.142,56.319,54.642,55.792,54.642,55.027z"
         id="path4113"
         style="fill:#ffffff" /><path
         fill="#414042"
         d="M58.275,57.383c-1.151,0-2.004-0.606-2.146-1.582h1.178c0.158,0.387,0.625,0.527,0.968,0.527    c0.466,0,0.817-0.141,0.817-0.404c0-0.255-0.158-0.36-0.949-0.483c-0.809-0.123-1.89-0.343-1.89-1.354    c0-0.712,0.624-1.45,1.934-1.45c1.036,0,1.81,0.563,1.96,1.416h-1.204c-0.07-0.212-0.325-0.379-0.756-0.379    c-0.536,0-0.757,0.193-0.757,0.36c0,0.237,0.335,0.316,0.897,0.404c1.124,0.185,1.934,0.431,1.934,1.415    C60.262,56.75,59.435,57.383,58.275,57.383z"
         id="path4115"
         style="fill:#ffffff" /><path
         fill="#414042"
         d="M64.601,56.056l-0.413,1.222h-1.23l2.127-6.1h1.468l2.127,6.1h-1.23l-0.413-1.222H64.601z M65.813,52.471    l-0.853,2.504h1.704L65.813,52.471z"
         id="path4117"
         style="fill:#ffffff" /><path
         fill="#414042"
         d="M70.318,52.26h-1.161v-1.082h1.161V52.26z M70.318,57.277h-1.161v-4.526h1.161V57.277z"
         id="path4119"
         style="fill:#ffffff" /><path
         fill="#414042"
         d="M75.284,54.86h-1.159v-0.229c0-0.264-0.079-0.896-0.843-0.896c-0.52,0-0.88,0.387-0.88,0.896v2.646h-1.161    v-4.526h1.108v0.439c0.29-0.343,0.686-0.554,1.169-0.554c1.063,0,1.766,0.8,1.766,1.995V54.86z"
         id="path4121"
         style="fill:#ffffff" /><path
         fill="#414042"
         d="M76.81,55.467c0.148,0.554,0.589,0.896,1.134,0.896c0.386,0,0.765-0.167,0.958-0.527h1.24    c-0.265,0.924-1.064,1.547-2.189,1.547c-1.274,0-2.32-1.055-2.32-2.364s1.046-2.382,2.32-2.382c1.336,0,2.443,1.037,2.275,2.83    H76.81z M79.077,54.518c-0.141-0.527-0.58-0.861-1.134-0.861c-0.527,0-0.95,0.334-1.116,0.861H79.077z"
         id="path4123"
         style="fill:#ffffff" /><path
         fill="#414042"
         d="M82.71,57.383c-1.15,0-2.003-0.606-2.144-1.582h1.178c0.158,0.387,0.624,0.527,0.966,0.527    c0.467,0,0.818-0.141,0.818-0.404c0-0.255-0.158-0.36-0.949-0.483c-0.809-0.123-1.89-0.343-1.89-1.354    c0-0.712,0.624-1.45,1.933-1.45c1.038,0,1.812,0.563,1.961,1.416h-1.205c-0.07-0.212-0.324-0.379-0.756-0.379    c-0.535,0-0.755,0.193-0.755,0.36c0,0.237,0.333,0.316,0.896,0.404c1.125,0.185,1.936,0.431,1.936,1.415    C84.698,56.75,83.87,57.383,82.71,57.383z"
         id="path4125"
         style="fill:#ffffff" /></g></g></svg>