<?xml version="1.0" encoding="utf-8"?>
<!-- Generator: Adobe Illustrator 16.0.0, SVG Export Plug-In . SVG Version: 6.00 Build 0)  -->
<!DOCTYPE svg PUBLIC "-//W3C//DTD SVG 1.1//EN" "http://www.w3.org/Graphics/SVG/1.1/DTD/svg11.dtd">
<svg version="1.1" id="Layer_1" xmlns="http://www.w3.org/2000/svg" xmlns:xlink="http://www.w3.org/1999/xlink" x="0px" y="0px"
	 width="276.314px" height="52.381px" viewBox="0 0 276.314 52.381" enable-background="new 0 0 276.314 52.381"
	 xml:space="preserve">
<g>
	<g>
		<path fill="#414042" d="M60.657,34.413h-7.719V18.565h7.308c3.175,0,4.772,1.645,4.772,4.293c0,1.326-0.57,2.398-1.553,3.105
			c1.348,0.707,2.169,1.986,2.169,3.791C65.635,32.587,63.717,34.413,60.657,34.413z M55.954,21.306V24.8h4.292
			c1.028,0,1.849-0.709,1.849-1.76s-0.707-1.734-1.849-1.734H55.954z M60.178,27.562h-4.224v4.088h4.292
			c1.165,0,2.307-0.455,2.307-2.008C62.553,28.315,61.708,27.562,60.178,27.562z"/>
		<path fill="#414042" d="M77.44,34.413h-2.878v-1.072c-0.73,0.844-1.758,1.346-2.99,1.346c-2.787,0-4.637-2.078-4.637-5.16v-6.875
			h3.014v6.875c0,0.662,0.229,2.307,2.193,2.307c1.347,0,2.282-1.006,2.282-2.307v-6.875h3.016V34.413z"/>
		<path fill="#414042" d="M82.098,29.708c0.388,1.438,1.529,2.33,2.945,2.33c1.005,0,1.986-0.436,2.489-1.369h3.22
			c-0.686,2.398-2.764,4.018-5.686,4.018c-3.313,0-6.029-2.74-6.029-6.141c0-3.404,2.717-6.189,6.029-6.189
			c3.471,0,6.348,2.693,5.913,7.352H82.098z M87.988,27.241c-0.365-1.369-1.506-2.236-2.945-2.236c-1.37,0-2.467,0.867-2.9,2.236
			H87.988z"/>
		<path fill="#414042" d="M103.127,34.413h-3.014V27.54c0-0.688-0.206-2.33-2.191-2.33c-1.349,0-2.285,1.006-2.285,2.33v6.873
			h-3.014V22.651H95.5v1.145c0.754-0.893,1.781-1.439,3.037-1.439c2.764,0,4.59,2.078,4.59,5.184V34.413z"/>
		<path fill="#414042" d="M116.508,28.546c0,3.516-2.672,6.141-5.938,6.141s-5.914-2.625-5.914-6.141
			c0-3.52,2.648-6.189,5.914-6.189S116.508,25.026,116.508,28.546z M113.471,28.565c0-2.031-1.302-3.447-2.9-3.447
			c-1.598,0-2.9,1.416-2.9,3.447c0,1.988,1.303,3.359,2.9,3.359C112.169,31.925,113.471,30.554,113.471,28.565z"/>
		<path fill="#414042" d="M122.877,34.687c-2.99,0-5.205-1.574-5.571-4.109h3.061c0.41,1.006,1.621,1.369,2.511,1.369
			c1.211,0,2.124-0.363,2.124-1.051c0-0.662-0.411-0.936-2.466-1.254c-2.102-0.322-4.91-0.893-4.91-3.518
			c0-1.85,1.621-3.768,5.025-3.768c2.693,0,4.703,1.463,5.092,3.674h-3.129c-0.183-0.547-0.846-0.98-1.963-0.98
			c-1.395,0-1.965,0.502-1.965,0.938c0,0.617,0.867,0.82,2.329,1.049c2.923,0.48,5.024,1.121,5.024,3.678
			C128.039,33.042,125.893,34.687,122.877,34.687z"/>
		<path fill="#414042" d="M139.272,31.239l-1.073,3.174h-3.197l5.525-15.848h3.814l5.525,15.848h-3.197l-1.072-3.174H139.272z
			 M142.424,21.923l-2.216,6.508h4.431L142.424,21.923z"/>
		<path fill="#414042" d="M154.091,21.374h-3.015v-2.809h3.015V21.374z M154.091,34.413h-3.015V22.651h3.015V34.413z"/>
		<path fill="#414042" d="M166.971,28.132h-3.015V27.54c0-0.688-0.206-2.33-2.193-2.33c-1.347,0-2.283,1.006-2.283,2.33v6.873
			h-3.015V22.651h2.878v1.145c0.753-0.893,1.78-1.439,3.037-1.439c2.764,0,4.591,2.078,4.591,5.184V28.132z"/>
		<path fill="#414042" d="M170.919,29.708c0.389,1.438,1.53,2.33,2.946,2.33c1.004,0,1.986-0.436,2.489-1.369h3.219
			c-0.685,2.398-2.763,4.018-5.686,4.018c-3.312,0-6.028-2.74-6.028-6.141c0-3.404,2.717-6.189,6.028-6.189
			c3.472,0,6.348,2.693,5.915,7.352H170.919z M176.811,27.241c-0.365-1.369-1.508-2.236-2.945-2.236c-1.37,0-2.467,0.867-2.9,2.236
			H176.811z"/>
		<path fill="#414042" d="M186.217,34.687c-2.99,0-5.206-1.574-5.572-4.109h3.061c0.412,1.006,1.622,1.369,2.512,1.369
			c1.211,0,2.125-0.363,2.125-1.051c0-0.662-0.412-0.936-2.467-1.254c-2.101-0.322-4.91-0.893-4.91-3.518
			c0-1.85,1.622-3.768,5.024-3.768c2.694,0,4.704,1.463,5.092,3.674h-3.128c-0.182-0.547-0.845-0.98-1.964-0.98
			c-1.394,0-1.965,0.502-1.965,0.938c0,0.617,0.868,0.82,2.329,1.049c2.924,0.48,5.025,1.121,5.025,3.678
			C191.379,33.042,189.232,34.687,186.217,34.687z"/>
		<path fill="#414042" d="M206.631,34.687c-4.316,0-7.674-3.629-7.674-8.268c0-4.633,3.357-8.266,7.674-8.266
			c3.586,0,6.234,2.033,7.216,5.275h-3.265c-0.709-1.439-2.125-2.512-3.951-2.512c-2.603,0-4.658,2.512-4.658,5.502
			c0,3.016,2.056,5.527,4.658,5.527c1.805,0,3.242-1.119,3.951-2.557h3.242C212.82,32.608,210.147,34.687,206.631,34.687z"/>
		<path fill="#414042" d="M218.367,21.374h-3.015v-2.809h3.015V21.374z M218.367,34.413h-3.015V22.651h3.015V34.413z"/>
		<path fill="#414042" d="M231.039,34.413h-2.877v-1.072c-0.73,0.844-1.758,1.346-2.991,1.346c-2.786,0-4.636-2.078-4.636-5.16
			v-6.875h3.015v6.875c0,0.662,0.229,2.307,2.192,2.307c1.348,0,2.283-1.006,2.283-2.307v-6.875h3.014V34.413z"/>
		<path fill="#414042" d="M244.717,34.413h-2.877v-1.256c-0.937,0.959-2.17,1.508-3.608,1.508c-3.061,0-5.594-2.648-5.594-6.119
			c0-3.496,2.533-6.145,5.594-6.145c1.37,0,2.558,0.502,3.472,1.369v-6.348h3.014V34.413z M238.689,25.188
			c-1.668,0-3.016,1.461-3.016,3.377c0,1.873,1.348,3.313,3.016,3.313c1.666,0,3.014-1.484,3.014-3.313
			C241.703,26.694,240.355,25.188,238.689,25.188z"/>
		<path fill="#414042" d="M258.462,34.413h-2.876v-1.256c-0.914,0.959-2.169,1.508-3.608,1.508c-3.06,0-5.595-2.648-5.595-6.119
			c0-3.496,2.535-6.145,5.595-6.145c1.439,0,2.694,0.547,3.608,1.506v-1.256h2.876V34.413z M252.434,25.188
			c-1.667,0-3.014,1.461-3.014,3.377c0,1.873,1.347,3.313,3.014,3.313c1.668,0,3.015-1.484,3.015-3.313
			C255.448,26.694,254.102,25.188,252.434,25.188z"/>
		<path fill="#414042" d="M272.186,34.413h-2.878v-1.256c-0.937,0.959-2.169,1.508-3.608,1.508c-3.06,0-5.594-2.648-5.594-6.119
			c0-3.496,2.534-6.145,5.594-6.145c1.371,0,2.559,0.502,3.473,1.369v-6.348h3.014V34.413z M266.156,25.188
			c-1.666,0-3.014,1.461-3.014,3.377c0,1.873,1.348,3.313,3.014,3.313c1.667,0,3.016-1.484,3.016-3.313
			C269.172,26.694,267.823,25.188,266.156,25.188z"/>
	</g>
	<g>
		<g>
			<path fill="#414042" d="M23.536,10.231c-0.127,0-0.225,0.102-0.225,0.227c0,0.121,0.098,0.221,0.225,0.221
				c0.125,0,0.223-0.1,0.223-0.221C23.759,10.333,23.661,10.231,23.536,10.231"/>
			<path fill="#414042" d="M34.862,13.696H34.83c-1.171-0.045-2.286-0.467-3.364-0.875c-0.439-0.164-0.886-0.336-1.338-0.479
				c-0.887-0.283-1.672-0.434-2.411-0.473c-0.192-0.006-0.372-0.014-0.563-0.014c-0.496,0-1.195,0.049-1.631,0.475
				c-0.125-0.553-0.275-1.168-0.502-1.756C24.8,10.022,24.47,9.362,23.88,9.183c-0.1-0.031-0.194-0.043-0.293-0.043
				c-0.584,0-1.031,0.529-1.248,0.84l-0.101,0.143c-0.257,0.369-0.383,0.553-0.347,0.729c0.045,0.176,0.254,0.307,0.73,0.58
				c0.206,0.117,0.244,0.42,0.273,0.643v0.025c0.043,0.334,0.064,0.658,0.063,0.965c-0.68-0.695-1.716-0.971-2.654-1.146
				c-0.251-0.047-0.513-0.076-0.781-0.076c-1.077,0-2.134,0.406-2.832,0.707c-0.395,0.172-0.793,0.363-1.172,0.547
				c-0.74,0.35-1.499,0.719-2.293,0.961c-0.246,0.074-0.495,0.135-0.812,0.189h-0.017c0,0.004-0.006,0.004-0.018,0.004l-0.021,0.004
				c-0.123,0.021-0.324,0.09-0.369,0.271c-0.036,0.186-0.012,0.307,0.239,0.502c0.575,0.328,1.284,0.488,2.148,0.488
				c0.177,0,0.358-0.006,0.558-0.02c0.26-0.014,0.522-0.047,0.798-0.086c0.401-0.051,0.808-0.102,1.196-0.102
				c0.27,0,0.508,0.027,0.725,0.072c0.643,0.154,1.023,0.787,1.357,1.354c0.088,0.141,0.162,0.275,0.244,0.395l0.009,0.01
				c0.154,0.234,0.413,0.625,0.397,0.922c-0.014,0.285-0.41,0.521-0.694,0.697c-0.073,0.049-0.151,0.092-0.208,0.127
				c-0.088,0.064-0.197,0.135-0.307,0.209c-0.645,0.41-1.529,0.969-1.425,1.725c0.044,0.369,0.358,0.672,0.737,0.717
				c0.029,0.006,0.068,0.006,0.104,0.006c0.265,0,0.51-0.125,0.74-0.24c0.1-0.055,0.199-0.109,0.296-0.146
				c0.307-0.123,0.618-0.186,0.923-0.186c0.52,0,1.023,0.172,1.484,0.521c0.15,0.113,0.287,0.25,0.419,0.383
				c0.145,0.145,0.296,0.297,0.463,0.414c0.132,0.1,0.385,0.199,0.597,0.199c0.213,0,0.352-0.104,0.392-0.289
				c0.075-0.377,0.07-0.771,0.07-1.148c-0.005-0.305-0.005-0.619,0.032-0.916c0.023-0.186,0.076-0.557,0.313-0.674
				c0.078-0.039,0.171-0.053,0.277-0.053c0.119,0,0.25,0.021,0.372,0.039c0.169,0.031,0.349,0.059,0.493,0.033
				c0.679-0.092,1.248-0.648,1.514-1.492c0.133-0.283,0.281-0.404,0.568-0.479c0.338-0.08,0.555-0.361,0.764-0.633
				c0.051-0.066,0.105-0.135,0.155-0.199c0.433-0.508,0.949-0.732,1.688-0.732c0.13,0,0.279,0.008,0.443,0.023
				c0.146,0.014,0.301,0.031,0.447,0.053c0.393,0.041,0.769,0.086,1.151,0.086c0.415,0,0.781-0.053,1.12-0.166
				c0.881-0.293,1.663-0.867,2.373-1.445l0.104-0.08c0.203-0.172,0.252-0.277,0.194-0.467C35.211,13.753,34.96,13.708,34.862,13.696
				 M19.63,16.327c-0.173-0.293-0.352-0.594-0.576-0.855c-0.516-0.625-1.191-0.902-2.218-0.902c-0.421,0-0.873,0.049-1.309,0.096
				c-0.427,0.045-0.869,0.092-1.293,0.092c-0.219,0-0.419-0.014-0.604-0.039c0.736-0.244,1.444-0.582,2.127-0.912
				c0.733-0.354,1.494-0.721,2.287-0.963c0.488-0.152,1.001-0.229,1.521-0.229c0.947,0,1.822,0.248,2.541,0.725
				c0.592,0.389,0.766,0.807,0.566,1.391c-0.215,0.617-0.584,1.229-1.101,1.814c-0.036,0.033-0.072,0.082-0.116,0.131
				c-0.223,0.27-0.6,0.713-0.916,0.713c-0.096,0-0.184-0.039-0.258-0.125C20.024,16.983,19.823,16.649,19.63,16.327 M25.608,17.196
				c-0.074,0.518-0.279,0.957-0.592,1.246c-0.277,0.252-0.586,0.305-0.992,0.305c-0.067,0-0.141,0-0.207,0
				c-0.074,0-0.148-0.002-0.23-0.002c-0.257,0-0.469,0.084-0.641,0.254c-0.491,0.498-0.482,1.586-0.475,2.307v0.234l-0.051-0.047
				c-0.619-0.572-1.199-1.123-2.074-1.25c-0.135-0.027-0.279-0.033-0.42-0.033c-0.266,0-0.547,0.033-0.828,0.102
				c-0.252,0.059-0.465,0.156-0.684,0.26c-0.09,0.033-0.168,0.076-0.259,0.115c-0.112,0.041-0.249,0.086-0.333,0.086
				c-0.023,0-0.045-0.004-0.055-0.014c-0.004-0.012-0.004-0.025,0.003-0.051c0.08-0.293,0.404-0.504,0.657-0.674l0.066-0.045
				c0.648-0.436,1.26-0.877,1.861-1.346c1.1-0.852,2.307-1.924,2.915-3.373c0.34-0.816,0.487-1.748,0.421-2.709v-0.055
				c-0.025-0.393-0.052-0.803-0.212-1.16c-0.129-0.301-0.362-0.441-0.608-0.584c-0.051-0.031-0.094-0.059-0.138-0.084
				c0.117-0.215,0.44-0.787,0.81-0.787c0.143,0,0.285,0.09,0.413,0.264c0.436,0.604,0.638,1.318,0.813,1.955
				c0.029,0.107,0.064,0.227,0.094,0.354C25.216,13.692,25.794,15.741,25.608,17.196 M33.132,14.872
				c-0.603,0.34-1.135,0.504-1.646,0.504h-0.048c-0.33-0.01-0.669-0.055-0.993-0.1c-0.279-0.035-0.566-0.072-0.849-0.086
				c-0.702-0.035-1.253,0.08-1.69,0.344c-0.302,0.18-0.516,0.439-0.721,0.693c-0.145,0.178-0.303,0.367-0.49,0.521
				c-0.051,0.045-0.124,0.1-0.193,0.1h-0.005c-0.082-0.004-0.089-0.059-0.082-0.174c0-0.027,0-0.053,0-0.074
				c-0.013-0.266-0.05-0.529-0.087-0.783l-0.021-0.145c-0.063-0.441-0.127-0.916-0.238-1.375c-0.013-0.08-0.042-0.176-0.08-0.279
				c-0.126-0.406-0.285-0.912,0.031-1.168c0.188-0.16,0.516-0.189,0.738-0.209c0,0,0.24-0.021,0.51-0.023h0.1
				c0.296,0,0.6,0.02,0.9,0.059c0.563,0.074,1.146,0.221,1.855,0.455c0.382,0.125,0.761,0.268,1.135,0.408
				c0.858,0.316,1.75,0.65,2.671,0.809C33.636,14.563,33.375,14.731,33.132,14.872"/>
			<path fill="#414042" d="M42.679,21.712c-0.254-1.633-0.658-3.238-1.204-4.793c-0.528-1.494-1.19-2.939-1.989-4.313
				c-0.618-1.059-1.311-2.072-2.094-3.027c-0.992-1.215-2.117-2.326-3.365-3.285c-1.212-0.939-2.531-1.729-3.939-2.336
				c-1.397-0.596-2.884-1.01-4.396-1.211c-1.535-0.199-3.103-0.182-4.636,0.061c-1.506,0.232-2.975,0.688-4.358,1.318
				c-1.39,0.641-2.701,1.465-3.894,2.424c-1.215,0.984-2.322,2.113-3.288,3.348c-0.956,1.211-1.781,2.516-2.484,3.881
				c-0.729,1.43-1.321,2.926-1.772,4.461c-0.473,1.602-0.795,3.25-0.971,4.91c-0.184,1.729-0.207,3.479-0.079,5.207
				c0.129,1.682,0.401,3.355,0.823,4.98c0.413,1.559,0.961,3.086,1.645,4.541c0.664,1.404,1.453,2.744,2.368,3.992
				c1.031,1.4,3.647,3.881,3.664,3.881c3.092,2.527,6.834,4.02,10.87,4.02h0.006c1.537,0,3.072-0.215,4.552-0.648
				c1.466-0.424,2.864-1.057,4.163-1.844c1.328-0.807,2.544-1.777,3.645-2.873c1.091-1.09,2.064-2.311,2.912-3.609
				c0.857-1.311,1.584-2.707,2.174-4.16c0.615-1.508,1.084-3.08,1.416-4.68c0.348-1.672,0.54-3.371,0.582-5.084
				C43.063,25.147,42.956,23.421,42.679,21.712 M8.242,32.983H7.747l0.444-1.686c0.043-0.127,0.065-0.121,0.08-0.068
				C8.265,31.837,8.253,32.425,8.242,32.983 M8.487,28.392l-0.998-0.461c-0.055-0.023-0.05-0.043,0.013-0.043h2.136
				c0.063,0,0.064,0.02,0.009,0.043l-0.958,0.461C8.636,28.417,8.543,28.417,8.487,28.392 M7.238,27.45l1.115-0.791
				c-0.007,0.258-0.013,0.521-0.018,0.791H7.238z M7.607,24.776h1.908c0.051,0,0.056,0.02,0.011,0.041L8.675,25.22
				c-0.055,0.021-0.139,0.021-0.188,0.006l-0.885-0.41C7.553,24.792,7.556,24.776,7.607,24.776 M7.37,24.386l1.027-0.676
				c-0.004,0.211-0.007,0.441-0.016,0.676H7.37z M8.76,23.722l1.011,0.664H8.769C8.769,24.159,8.76,23.94,8.76,23.722 M8.805,26.661
				l1.12,0.789H8.817C8.812,27.187,8.805,26.917,8.805,26.661 M8.907,32.983c-0.006-0.559-0.021-1.146-0.031-1.748
				c0.01-0.045,0.036-0.072,0.075,0.045l0.452,1.703H8.907z M23.579,48.065c-2.966,0-5.763-0.891-8.229-2.49
				c1.912-0.012,3.811,0.244,5.696,0.523c1.892,0.281,3.788,0.598,5.692,0.791c0.73,0.072,1.472,0.129,2.203,0.156
				C27.249,47.712,25.448,48.065,23.579,48.065 M32.276,45.265c-1.877,0.199-3.777,0.105-5.651-0.1
				c-1.874-0.199-3.739-0.521-5.602-0.789c-1.924-0.277-3.858-0.518-5.801-0.504c-0.661,0.01-1.321,0.037-1.975,0.105
				c-0.618-0.547-1.202-1.146-1.767-1.777c1.949-0.289,3.938-0.283,5.898-0.141c1.971,0.143,3.926,0.432,5.881,0.717
				c0.982,0.148,1.96,0.295,2.939,0.424c0.494,0.064,2.438,0.215,2.913,0.215c1.96,0,3.931-0.15,5.872-0.463
				C34.144,43.823,33.236,44.593,32.276,45.265 M36.743,40.862c-1.883,0.453-3.812,0.695-5.742,0.795
				c-0.967,0.055-1.936,0.078-2.903,0.027c-0.978-0.043-1.948-0.203-2.914-0.344c-1.947-0.277-3.892-0.59-5.847-0.809
				c-1.951-0.215-3.912-0.336-5.875-0.24c-1.066,0.057-2.135,0.176-3.182,0.381c-0.362-0.5-0.702-1.021-1.023-1.566
				c1.73-0.355,3.484-0.584,5.252-0.646c1.787-0.061,3.572,0.059,5.344,0.285c1.713,0.225,3.412,0.545,5.125,0.775
				c1.57,0.209,3.142,0.348,4.721,0.348h0.012c1.642,0,3.282-0.141,4.902-0.408c1.184-0.191,2.358-0.436,3.516-0.736
				C37.702,39.472,37.236,40.187,36.743,40.862 M10.625,34.847c-0.817-0.541-0.928-1.426-0.879-1.594l2.534-5.977
				c0.053-0.107,0.079-0.07,0.066,0L10.625,34.847z M12.311,29.206c-0.04,2.682-0.075,5.17-0.09,6.365
				c-0.46-0.135-0.921-0.275-1.313-0.555l1.343-5.928C12.286,29.034,12.304,29.118,12.311,29.206 M11.64,23.966h1.904
				c0.049,0,0.055,0.023,0.006,0.043l-0.857,0.408c-0.043,0.025-0.126,0.025-0.176,0.002l-0.89-0.41
				C11.578,23.989,11.578,23.966,11.64,23.966 M11.401,23.581l1.005-0.664c-0.009,0.213-0.009,0.438-0.011,0.664H11.401z
				 M12.804,22.929l0.992,0.652h-0.984C12.812,23.356,12.804,23.138,12.804,22.929 M14.841,31.7
				c-0.037,1.283-0.066,2.563-0.089,3.555c-0.007,0.008-0.018,0.018-0.03,0.018l-0.846-3.693l0.447-1.076L14.841,31.7z
				 M14.499,30.093l0.338-0.801c0.034-0.051,0.055-0.033,0.063,0.006c-0.01,0.518-0.025,1.07-0.039,1.639L14.499,30.093z
				 M13.656,32.087l0.819,3.357c-0.284,0.123-0.643,0.184-0.957,0.23c-0.109,0.012-0.219,0.021-0.332,0.029
				c-0.064,0.006-0.139,0.012-0.207,0.006c0-0.449-0.014-1.135-0.02-1.971L13.656,32.087z M12.947,32.946
				c-0.013-1.111-0.029-2.412-0.054-3.758c0.01-0.109,0.036-0.189,0.086-0.025l0.555,2.387L12.947,32.946z M13.749,31.052
				l-0.871-3.771c-0.009-0.074,0.008-0.111,0.066-0.004l1.208,2.816L13.749,31.052z M15.413,32.226v-0.549
				c-0.026-0.98-0.051-1.436-0.068-2.346c0.006-0.064,0.022-0.105,0.074-0.033l1.51,3.777c-0.246,0.492-0.293,0.666-0.675,1.07
				L15.413,32.226z M16.008,34.388c-0.149,0.174-0.354,0.338-0.524,0.477c-0.016-0.514-0.035-1.178-0.049-1.781L16.008,34.388z
				 M17.548,32.942l1.73-3.717c-0.03,1.068-0.067,2.594-0.098,3.717h-0.709C18.214,32.942,17.803,32.958,17.548,32.942
				 M29.935,28.181h2.502c0.064,0,0.076,0.02,0.032,0.045c-0.009,0.006-1.142,0.541-1.142,0.541
				c-0.074,0.035-0.174,0.033-0.232,0.006l-1.172-0.541C29.855,28.202,29.862,28.181,29.935,28.181 M29.648,27.683l1.307-0.936
				c0,0.277-0.011,0.904-0.011,0.936H29.648z M30.122,23.997c0,0,0.028-0.008,0.043-0.008h2.087c0.024,0,0.032,0,0.038,0.008h0.01
				h-0.01c0.016,0.006,0.01,0.02-0.028,0.037l-0.937,0.438c-0.053,0.025-0.143,0.025-0.193,0.006l-0.975-0.443
				C30.122,24.017,30.113,24.003,30.122,23.997 M29.897,23.548l1.117-0.801c-0.007,0.26-0.007,0.525-0.012,0.801H29.897z
				 M31.4,22.761l1.124,0.787h-1.104C31.414,23.282,31.409,23.019,31.4,22.761 M31.458,26.747l1.305,0.936h-1.283
				C31.471,27.376,31.464,27.052,31.458,26.747 M35.243,25.743h2.141c0.06,0,0.066,0.014,0.008,0.045l-0.959,0.461
				c-0.055,0.021-0.142,0.021-0.199,0l-0.996-0.461C35.181,25.757,35.184,25.743,35.243,25.743 M34.976,25.306l1.123-0.797
				c-0.008,0.268-0.009,0.527-0.013,0.797H34.976z M36.534,24.513l1.138,0.793h-1.123C36.546,25.04,36.542,24.776,36.534,24.513
				 M36.049,29.11c-0.039,2.59-0.083,5.373-0.11,7.328c-0.629,0.217-1.178,0.273-1.654,0.234l1.063-4.748l0.625-2.801
				C36.003,29.06,36.032,29.022,36.049,29.11 M35.9,27.999l-1.854,8.23l-0.808-2.211l0.007-0.014l2.538-6.092
				C35.853,27.794,35.93,27.712,35.9,27.999 M33.848,36.603c-0.583-0.129-1.044-0.414-1.394-0.719l0.604-1.443L33.848,36.603z
				 M32.222,35.655c-0.36-0.383-0.563-0.758-0.646-0.918c-0.015-1.246-0.045-3.107-0.075-5.098l1.413,4.346L32.222,35.655z
				 M29.163,34.651h-3.065l4.563-5.148L29.163,34.651z M30.911,29.636c-0.018,1.158-0.06,4.875-0.06,5.016h-1.366L30.911,29.636z
				 M36.599,29.106c-0.007-0.084,0.039-0.059,0.068,0.018l1.277,5.527c-0.276,0.65-0.84,1.129-1.254,1.404
				C36.68,35.054,36.603,29.128,36.599,29.106 M38.271,34.618l-1.562-6.555c-0.047-0.4,0.052-0.256,0.135-0.105l2.858,6.66H38.271z
				 M40.825,31.421c-0.212,1.049-0.489,2.078-0.822,3.088l-3.424-8.125l1.506-0.672c0.155-0.074,0.155-0.299,0.003-0.381
				c0,0-1.476-1.047-1.559-1.107l-0.035-2.492c0.181-0.025,0.359-0.105,0.534-0.137c0.201-0.025,0.391,0.008,0.584,0.043
				c0.178,0.027,0.358,0.047,0.533-0.006c0.166-0.045,0.313-0.139,0.441-0.246c-0.389-0.006-0.703-0.254-1.049-0.408
				c-0.174-0.084-0.36-0.131-0.553-0.152c-0.186-0.02-0.406-0.033-0.586,0.021c-0.021-0.143-0.041-0.293-0.063-0.457h-0.081
				c-0.116,0.682-0.11,1.43-0.119,2.119c-0.002,0.484-0.007,0.969-0.014,1.457c0,0.084,0,0.168-0.009,0.258l-1.545,1.105
				c-0.151,0.076-0.155,0.301,0,0.379v0.004l1.458,0.672l-2.944,7.172l-1.521-4.615l1.684-0.789
				c0.171-0.088,0.182-0.348,0.009-0.439c0,0-1.589-1.111-1.795-1.262c-0.007-0.582-0.021-1.211-0.025-1.76l1.536-0.725v-0.002
				c0.152-0.076,0.163-0.299,0.008-0.383c0,0-1.376-0.977-1.58-1.119c-0.013-1.137-0.019-2.266-0.036-3.391
				c0.082,0,0.17-0.033,0.259-0.053c0.098-0.031,0.189-0.061,0.292-0.08c0.194-0.033,0.389-0.004,0.582,0.029
				c0.188,0.033,0.373,0.053,0.558,0c0.169-0.047,0.313-0.139,0.447-0.244c-0.388-0.01-0.708-0.256-1.05-0.412
				c-0.172-0.082-0.365-0.129-0.551-0.15c-0.19-0.018-0.408-0.033-0.588,0.021c-0.016-0.143-0.037-0.293-0.065-0.461H31.17v0.006
				c-0.108,0.627-0.114,1.252-0.12,1.887c-0.006,0.576-0.006,1.148-0.017,1.723c-0.007,0.375-0.014,0.754-0.019,1.125l-1.563,1.115
				c-0.154,0.08-0.154,0.305,0,0.387l1.53,0.721l0,0c0,0.549-0.011,1.191-0.019,1.766l-1.787,1.256
				c-0.182,0.092-0.182,0.354,0,0.439l1.644,0.789l-5.147,5.717c-0.1,0-0.74,0.006-0.828,0.125
				c-0.136,0.107-0.142,0.268-0.082,0.406c0.072,0.189,0.232,0.316,0.402,0.414c0.082,0.053,0.181,0.1,0.276,0.135
				c0.011,0.004,0.022,0.016,0.028,0.027c0,0,0.467,1.535,2.451,2.256h-0.008c0,0,0.053,0.02,0.042,0.059
				c-0.005,0.016-0.009,0.018-0.012,0.021c-0.015,0.006-0.038,0.01-0.052,0.014c-1.897-0.117-3.766-0.428-5.635-0.719
				c-0.717-0.117-1.43-0.225-2.145-0.32c-0.488-0.061-0.969-0.119-1.451-0.203c-0.047-0.02-0.07-0.033-0.08-0.053v-0.006
				c-0.004,0-0.004-0.006-0.004-0.006v-0.01c0-0.006,0.004-0.006,0.004-0.006c0.003-0.014,0.015-0.023,0.025-0.037
				c0.008-0.006,0.016-0.012,0.016-0.012c2.633-0.783,3.188-2.701,3.188-2.701c0.033-0.018,0.065-0.037,0.096-0.055
				c0.074-0.033,0.146-0.066,0.209-0.104c0.168-0.1,0.33-0.229,0.404-0.412c0.06-0.143,0.051-0.303-0.08-0.41
				c-0.098-0.129-0.844-0.125-0.844-0.125l-0.006,0.004h-0.127c-0.006-0.41-0.014-1.475-0.04-2.164
				c0.078,0.035,0.173,0.006,0.246-0.014c0.101-0.029,0.196-0.061,0.296-0.08c0.205-0.053,0.398-0.039,0.605,0
				c0.197,0.031,0.391,0.064,0.591,0.014c0.176-0.039,0.331-0.139,0.47-0.252c-0.396-0.012-0.722-0.273-1.072-0.426
				c-0.187-0.078-0.382-0.127-0.578-0.143c-0.191-0.016-0.43-0.033-0.6,0.055c-0.015-0.17-0.027-0.309-0.043-0.414h-0.076
				c-0.102,0.588-0.102,2.631-0.107,3.424l-1.322,0.004c-0.04-1.439-0.105-3.367-0.139-4.6l1.147-2.453
				c0.157,0.066,0.335,0.08,0.497,0.139c0.186,0.063,0.326,0.172,0.473,0.289c0.14,0.115,0.279,0.227,0.447,0.285
				c0.188,0.053,0.389,0.051,0.571,0.018c-0.325-0.197-0.478-0.555-0.687-0.854c-0.109-0.154-0.25-0.289-0.398-0.4
				c-0.161-0.121-0.347-0.238-0.54-0.285c0.045-0.135,0.103-0.316,0.108-0.406c-0.006-0.01,0-0.033-0.031-0.055
				c-0.011,0-0.02-0.004-0.025-0.004c-0.052,0.008-0.063,0.037-0.096,0.08c-0.104,0.125-0.244,0.369-0.265,0.412l-1.218,2.621
				c-0.016-0.41-0.022-0.824-0.029-1.238c0-0.521-0.023-1.037-0.111-1.551h-0.074c-0.107,0.625-0.111,1.254-0.118,1.885
				c-0.007,0.566-0.025,1.137-0.044,1.705l-2.103,4.359l-1.884-4.623c-0.016-0.572-0.028-1.141-0.037-1.717
				c-0.01-0.65-0.01-1.299-0.121-1.943h-0.07c-0.11,0.637-0.11,1.273-0.125,1.912c-0.001,0.582-0.019,1.166-0.029,1.742l-0.607,1.43
				l-1.473-3.436c-0.01-0.57-0.016-1.135-0.025-1.68l1.346-0.631c0.131-0.064,0.137-0.266,0-0.334c0,0-1.133-0.82-1.373-0.988
				c-0.016-1.18-0.027-2.363-0.045-3.547c0.088,0,0.17-0.033,0.254-0.053c0.093-0.031,0.191-0.061,0.293-0.08
				c0.203-0.033,0.387-0.004,0.583,0.029c0.187,0.033,0.376,0.053,0.559,0c0.162-0.047,0.311-0.139,0.444-0.244
				c-0.377-0.01-0.694-0.244-1.027-0.406c-0.172-0.078-0.355-0.131-0.547-0.152c-0.189-0.021-0.418-0.041-0.611,0.018
				c-0.015-0.154-0.036-0.311-0.058-0.465h-0.076c-0.132,0.756-0.117,1.516-0.124,2.279c-0.008,0.738-0.02,1.475-0.028,2.211
				c-0.003,0.139-0.003,0.273-0.008,0.41l-1.371,0.982c-0.136,0.066-0.14,0.27,0,0.34l1.343,0.631
				c-0.01,0.615-0.025,1.613-0.025,1.68l-2.731,6.422L9.22,31.196h0.352l0,0h0.178c0.08,0,0.158-0.029,0.227-0.055
				c0.053-0.016,0.176-0.057,0.176-0.131c0-0.066-0.109-0.107-0.156-0.127c-0.077-0.025-0.162-0.053-0.246-0.053H9.124l-0.271-1.02
				c-0.007-0.414-0.013-0.838-0.021-1.246l1.508-0.709c0.153-0.078,0.157-0.301,0.008-0.379c0,0-1.447-1.027-1.554-1.094
				c0-0.303-0.006-0.717-0.015-0.994l1.359-0.641c0.141-0.066,0.141-0.27,0.006-0.34c0,0-1.207-0.865-1.396-0.998
				c-0.012-0.99-0.02-1.648-0.024-1.723c0.156,0.014,0.331-0.074,0.478-0.105c0.174-0.033,0.34-0.016,0.509,0.012
				c0.161,0.031,0.331,0.059,0.495,0.02c0.154-0.045,0.295-0.125,0.419-0.229c-0.345-0.006-0.628-0.229-0.928-0.367
				c-0.155-0.07-0.326-0.111-0.495-0.125c-0.169-0.02-0.369-0.033-0.524,0.027c-0.017-0.133-0.036-0.266-0.067-0.41H8.536
				c-0.102,0.541-0.107,1.084-0.112,1.635c-0.007,0.473-0.014,0.797-0.026,1.266l-1.391,0.994c-0.139,0.074-0.139,0.275,0,0.344
				l1.361,0.641c-0.004,0.281-0.008,0.697-0.015,0.994l-1.53,1.088c-0.155,0.078-0.155,0.303,0,0.383l1.493,0.711
				c-0.005,0.408-0.015,0.826-0.022,1.236l-0.267,1.029H7.402c-0.084,0-0.164,0.021-0.233,0.047c-0.05,0.02-0.174,0.063-0.174,0.133
				c0,0.072,0.109,0.105,0.159,0.125c0.077,0.031,0.164,0.061,0.248,0.061h0.169c0,0,0,0,0.004,0h0.352L7.46,32.983H6.706
				c-0.463-1.725-0.738-3.49-0.834-5.266c-0.102-1.777-0.029-3.564,0.223-5.332c0.232-1.631,0.619-3.25,1.166-4.814
				c0.518-1.48,1.174-2.916,1.979-4.268c0.42-0.711,0.885-1.404,1.386-2.063c2.048,0.688,4.694,0.059,4.694,0.059
				c2.381-0.43,3.867-0.361,4.73-0.229l0.463,0.082c0.051-0.293,0.085-0.504,0.175-0.777c-2.494-0.791-5.301-0.41-5.301-0.41
				c-1.704,0.158-2.737-0.188-3.272-0.486c0,0,1.072-1.139,1.951-1.768c0.77,0.557,1.735,0.828,2.646,0.99
				c0.601,0.105,1.211,0.15,1.807,0.287c0.603,0.137,1.207,0.318,1.791,0.521c0.207,0.074,0.479,0.205,0.605,0.266
				c0.108-0.244,0.26-0.467,0.418-0.684l-0.387-0.246c-0.77-0.443-1.498-0.672-2.313-0.916c-0.541-0.164-1.061-0.354-1.571-0.611
				c-0.692-0.361-1.123-0.822-1.159-0.855c0,0,1.186-0.727,2.305-1.141c0.516,0.732,1.476,1.141,2.128,1.705
				c0.925,0.789,1.413,1.525,1.46,1.605c0.221-0.162,0.418-0.279,0.699-0.385c-0.369-0.811-0.893-1.742-1.526-2.33
				c-0.29-0.27-0.724-0.736-0.843-1.197c0,0,1.484-0.375,2.627-0.395l0.429,3.758c0.16-0.029,0.397-0.025,0.397-0.025
				s0.151-0.004,0.4,0.025l0.428-3.754c0,0,1.008,0.049,1.83,0.209c0.457,0.094,0.803,0.182,0.803,0.182
				c-0.13,0.459-0.552,0.932-0.833,1.197c-0.647,0.596-1.146,1.516-1.519,2.336c0.22,0.098,0.465,0.191,0.694,0.383
				c0.431-0.645,0.966-1.189,1.456-1.609c0.639-0.559,1.597-0.992,2.114-1.705c0.135,0.051,0.71,0.271,1.632,0.744l0.688,0.395
				c-0.021,0.02-0.782,0.641-1.161,0.857c-0.501,0.283-1.032,0.447-1.575,0.611c-0.813,0.244-1.539,0.473-2.313,0.916l-0.389,0.24
				c0.152,0.191,0.301,0.418,0.426,0.686c0.141-0.066,0.405-0.193,0.604-0.262c0.583-0.203,1.186-0.385,1.795-0.521
				c0.591-0.137,1.2-0.182,1.803-0.287c0.898-0.158,1.877-0.447,2.64-0.99c0.971,0.748,1.948,1.771,1.948,1.771
				c-0.537,0.295-1.572,0.639-3.264,0.482c0,0-2.807-0.381-5.298,0.4c0.079,0.234,0.108,0.398,0.163,0.76l0.496-0.078
				c0.885-0.125,2.33-0.178,4.707,0.252c0,0,2.637,0.629,4.68-0.053c0.209,0.264,0.401,0.531,0.591,0.811
				c0.878,1.271,1.616,2.641,2.213,4.061c0.64,1.502,1.116,3.063,1.447,4.654c0.351,1.676,0.526,3.387,0.546,5.104
				C41.351,27.733,41.186,29.599,40.825,31.421"/>
		</g>
	</g>
</g>
</svg>
