<?xml version="1.0" encoding="utf-8"?>
<!-- Generator: Adobe Illustrator 16.0.0, SVG Export Plug-In . SVG Version: 6.00 Build 0)  -->
<!DOCTYPE svg PUBLIC "-//W3C//DTD SVG 1.1//EN" "http://www.w3.org/Graphics/SVG/1.1/DTD/svg11.dtd">
<svg version="1.1" id="Layer_1" xmlns="http://www.w3.org/2000/svg" xmlns:xlink="http://www.w3.org/1999/xlink" x="0px" y="0px"
	 width="106.005px" height="50.437px" viewBox="0 0 106.005 50.437" enable-background="new 0 0 106.005 50.437"
	 xml:space="preserve">
<g>
	<g>
		<path fill="#414042" d="M52.934,15.264h-5.793V3.371h5.484c2.381,0,3.58,1.234,3.58,3.221c0,0.994-0.428,1.801-1.164,2.332
			c1.01,0.531,1.627,1.49,1.627,2.844C56.668,13.893,55.229,15.264,52.934,15.264z M49.402,5.428v2.621h3.223
			c0.77,0,1.387-0.531,1.387-1.318c0-0.789-0.531-1.303-1.387-1.303H49.402z M52.572,10.123h-3.17v3.066h3.223
			c0.873,0,1.73-0.342,1.73-1.508C54.355,10.688,53.721,10.123,52.572,10.123z"/>
		<path fill="#414042" d="M65.545,15.264h-2.158v-0.807c-0.549,0.635-1.318,1.012-2.244,1.012c-2.092,0-3.479-1.559-3.479-3.873
			V6.438h2.262v5.158c0,0.498,0.172,1.73,1.645,1.73c1.012,0,1.715-0.754,1.715-1.73V6.438h2.26V15.264z"/>
		<path fill="#414042" d="M69.063,11.732c0.289,1.08,1.146,1.748,2.209,1.748c0.754,0,1.49-0.324,1.867-1.027h2.416
			c-0.514,1.799-2.072,3.016-4.266,3.016c-2.486,0-4.523-2.057-4.523-4.609s2.037-4.645,4.523-4.645
			c2.605,0,4.764,2.023,4.438,5.518H69.063z M73.482,9.883c-0.273-1.029-1.131-1.68-2.211-1.68c-1.027,0-1.85,0.65-2.176,1.68
			H73.482z"/>
		<path fill="#414042" d="M84.861,15.264H82.6v-5.158c0-0.514-0.154-1.748-1.645-1.748c-1.012,0-1.715,0.754-1.715,1.748v5.158
			h-2.262V6.438h2.16v0.857c0.566-0.668,1.336-1.08,2.277-1.08c2.076,0,3.445,1.561,3.445,3.891V15.264z"/>
		<path fill="#414042" d="M94.922,10.859c0,2.639-2.004,4.609-4.455,4.609c-2.449,0-4.438-1.971-4.438-4.609
			s1.988-4.645,4.438-4.645C92.918,6.215,94.922,8.221,94.922,10.859z M92.645,10.877c0-1.525-0.977-2.588-2.178-2.588
			c-1.197,0-2.174,1.063-2.174,2.588c0,1.49,0.977,2.518,2.174,2.518C91.668,13.395,92.645,12.367,92.645,10.877z"/>
		<path fill="#414042" d="M99.723,15.469c-2.244,0-3.908-1.182-4.182-3.084h2.297c0.309,0.754,1.217,1.027,1.885,1.027
			c0.908,0,1.594-0.273,1.594-0.787c0-0.498-0.309-0.703-1.852-0.943c-1.574-0.24-3.684-0.668-3.684-2.639
			c0-1.389,1.217-2.828,3.771-2.828c2.02,0,3.527,1.098,3.82,2.76h-2.348c-0.137-0.412-0.635-0.736-1.473-0.736
			c-1.047,0-1.475,0.377-1.475,0.701c0,0.463,0.65,0.617,1.746,0.789c2.195,0.359,3.771,0.84,3.771,2.758
			C103.596,14.234,101.984,15.469,99.723,15.469z"/>
	</g>
	<g>
		<path fill="#414042" d="M49.352,28.84l-0.807,2.381h-2.398l4.146-11.893h2.863l4.146,11.893h-2.398l-0.807-2.381H49.352z
			 M51.717,21.848l-1.662,4.885h3.322L51.717,21.848z"/>
		<path fill="#414042" d="M60.492,21.438H58.23v-2.109h2.262V21.438z M60.492,31.221H58.23v-8.824h2.262V31.221z"/>
		<path fill="#414042" d="M70.174,26.51h-2.262v-0.447c0-0.514-0.154-1.746-1.646-1.746c-1.012,0-1.713,0.754-1.713,1.746v5.158
			h-2.262v-8.824h2.16v0.857c0.564-0.67,1.336-1.08,2.277-1.08c2.074,0,3.445,1.559,3.445,3.889V26.51z"/>
		<path fill="#414042" d="M73.139,27.691c0.291,1.08,1.148,1.748,2.211,1.748c0.754,0,1.492-0.326,1.869-1.029h2.414
			c-0.512,1.801-2.072,3.018-4.266,3.018c-2.486,0-4.525-2.057-4.525-4.611c0-2.553,2.039-4.643,4.525-4.643
			c2.604,0,4.764,2.021,4.438,5.518H73.139z M77.561,25.84c-0.273-1.027-1.131-1.678-2.211-1.678c-1.027,0-1.85,0.65-2.176,1.678
			H77.561z"/>
		<path fill="#414042" d="M84.639,31.428c-2.244,0-3.906-1.184-4.18-3.086h2.297c0.307,0.754,1.215,1.029,1.883,1.029
			c0.91,0,1.596-0.275,1.596-0.789c0-0.496-0.309-0.703-1.852-0.941c-1.576-0.24-3.684-0.67-3.684-2.641
			c0-1.387,1.217-2.826,3.77-2.826c2.021,0,3.529,1.096,3.82,2.758h-2.346c-0.139-0.41-0.637-0.736-1.475-0.736
			c-1.047,0-1.473,0.377-1.473,0.703c0,0.463,0.65,0.617,1.746,0.787c2.193,0.361,3.771,0.84,3.771,2.76
			C88.514,30.193,86.9,31.428,84.639,31.428z"/>
	</g>
	<g>
		<path fill="#414042" d="M52.367,47.385c-3.238,0-5.758-2.725-5.758-6.203s2.52-6.203,5.758-6.203c2.691,0,4.678,1.525,5.416,3.959
			h-2.451c-0.531-1.08-1.594-1.885-2.965-1.885c-1.953,0-3.496,1.885-3.496,4.129c0,2.262,1.543,4.146,3.496,4.146
			c1.354,0,2.434-0.84,2.965-1.918h2.434C57.01,45.826,55.006,47.385,52.367,47.385z"/>
		<path fill="#414042" d="M61.178,37.395h-2.262v-2.107h2.262V37.395z M61.178,47.18h-2.262v-8.826h2.262V47.18z"/>
		<path fill="#414042" d="M70.705,47.18h-2.16v-0.807c-0.547,0.635-1.318,1.012-2.242,1.012c-2.092,0-3.479-1.559-3.479-3.873
			v-5.158h2.262v5.158c0,0.498,0.17,1.73,1.645,1.73c1.01,0,1.713-0.754,1.713-1.73v-5.158h2.262V47.18z"/>
		<path fill="#414042" d="M80.988,47.18H78.83v-0.943c-0.705,0.721-1.629,1.131-2.709,1.131c-2.297,0-4.199-1.986-4.199-4.592
			c0-2.621,1.902-4.609,4.199-4.609c1.029,0,1.92,0.377,2.605,1.027V34.43h2.262V47.18z M76.465,40.256
			c-1.252,0-2.262,1.098-2.262,2.537c0,1.404,1.01,2.484,2.262,2.484c1.25,0,2.262-1.113,2.262-2.484
			C78.727,41.387,77.715,40.256,76.465,40.256z"/>
		<path fill="#414042" d="M91.324,47.18h-2.16v-0.943c-0.686,0.721-1.627,1.131-2.707,1.131c-2.295,0-4.199-1.986-4.199-4.592
			c0-2.621,1.904-4.609,4.199-4.609c1.08,0,2.021,0.41,2.707,1.131v-0.943h2.16V47.18z M86.801,40.256
			c-1.252,0-2.262,1.098-2.262,2.537c0,1.404,1.01,2.484,2.262,2.484c1.25,0,2.262-1.113,2.262-2.484
			C89.063,41.387,88.051,40.256,86.801,40.256z"/>
		<path fill="#414042" d="M101.643,47.18h-2.16v-0.943c-0.703,0.721-1.627,1.131-2.707,1.131c-2.297,0-4.199-1.986-4.199-4.592
			c0-2.621,1.902-4.609,4.199-4.609c1.027,0,1.92,0.377,2.605,1.027V34.43h2.262V47.18z M97.117,40.256
			c-1.25,0-2.262,1.098-2.262,2.537c0,1.404,1.012,2.484,2.262,2.484c1.252,0,2.264-1.113,2.264-2.484
			C99.381,41.387,98.369,40.256,97.117,40.256z"/>
	</g>
	<path fill="#414042" d="M20.557,10.18c-0.117,0-0.213,0.094-0.213,0.211c0,0.119,0.096,0.205,0.213,0.205
		c0.127,0,0.213-0.086,0.213-0.205C20.77,10.273,20.684,10.18,20.557,10.18"/>
	<path fill="#414042" d="M31.162,13.422l-0.033-0.006c-1.098-0.037-2.143-0.432-3.15-0.813c-0.412-0.148-0.83-0.314-1.248-0.451
		c-0.832-0.266-1.574-0.406-2.26-0.441c-0.182,0-0.348-0.012-0.523-0.012c-0.465,0-1.119,0.047-1.531,0.443
		c-0.115-0.514-0.254-1.09-0.465-1.645c-0.213-0.51-0.516-1.131-1.074-1.299c-0.088-0.033-0.172-0.045-0.27-0.045
		c-0.543,0-0.963,0.492-1.168,0.789l-0.098,0.135c-0.234,0.348-0.35,0.518-0.316,0.678c0.041,0.168,0.24,0.291,0.678,0.549
		c0.201,0.1,0.219,0.395,0.26,0.596v0.023c0.043,0.318,0.064,0.613,0.059,0.906c-0.635-0.646-1.604-0.912-2.48-1.072
		c-0.234-0.047-0.479-0.07-0.73-0.07c-1.008,0-1.998,0.385-2.648,0.66c-0.375,0.166-0.742,0.342-1.09,0.514
		c-0.701,0.324-1.41,0.666-2.158,0.9c-0.234,0.068-0.459,0.127-0.752,0.172h-0.02c0,0,0,0-0.018,0l-0.018,0.006
		c-0.111,0.025-0.313,0.084-0.35,0.26c-0.027,0.17-0.002,0.283,0.225,0.465c0.537,0.313,1.203,0.459,2.016,0.459
		c0.16,0,0.33-0.006,0.521-0.016c0.24-0.012,0.494-0.049,0.746-0.082c0.373-0.049,0.748-0.102,1.115-0.102
		c0.252,0,0.479,0.029,0.678,0.076c0.602,0.143,0.955,0.73,1.268,1.262c0.082,0.131,0.16,0.262,0.236,0.365l0.006,0.014
		c0.139,0.219,0.383,0.588,0.371,0.859c-0.014,0.271-0.383,0.496-0.654,0.652c-0.076,0.043-0.135,0.09-0.193,0.127
		c-0.078,0.059-0.186,0.123-0.285,0.188c-0.611,0.383-1.426,0.906-1.33,1.615c0.033,0.348,0.33,0.625,0.688,0.672
		c0.025,0,0.055,0,0.102,0c0.24,0,0.471-0.111,0.684-0.225c0.1-0.047,0.193-0.1,0.277-0.129c0.287-0.117,0.584-0.182,0.859-0.182
		c0.494,0,0.965,0.162,1.396,0.488c0.129,0.105,0.26,0.234,0.389,0.352c0.135,0.143,0.271,0.285,0.438,0.395
		c0.117,0.09,0.355,0.191,0.555,0.191c0.201,0,0.33-0.102,0.371-0.271c0.07-0.348,0.059-0.721,0.059-1.078
		c0-0.283,0-0.58,0.037-0.857c0.014-0.168,0.07-0.518,0.285-0.629c0.076-0.035,0.16-0.049,0.262-0.049
		c0.111,0,0.234,0.025,0.346,0.037c0.16,0.025,0.326,0.053,0.469,0.035c0.629-0.094,1.158-0.615,1.408-1.402
		c0.129-0.266,0.266-0.377,0.535-0.447c0.313-0.072,0.52-0.33,0.713-0.59c0.043-0.061,0.096-0.131,0.141-0.189
		c0.408-0.473,0.893-0.686,1.588-0.686c0.123,0,0.26,0.014,0.41,0.025c0.135,0.012,0.277,0.037,0.412,0.047
		c0.367,0.043,0.729,0.076,1.08,0.076c0.391,0,0.727-0.041,1.057-0.148c0.822-0.271,1.551-0.811,2.223-1.352l0.092-0.072
		c0.191-0.166,0.23-0.262,0.178-0.443C31.479,13.48,31.246,13.432,31.162,13.422 M16.904,15.885
		c-0.16-0.277-0.326-0.561-0.539-0.801c-0.475-0.59-1.111-0.848-2.074-0.848c-0.387,0-0.813,0.045-1.219,0.092
		c-0.395,0.041-0.82,0.078-1.209,0.078c-0.213,0-0.395-0.008-0.57-0.031c0.689-0.229,1.35-0.543,1.99-0.859
		c0.686-0.318,1.396-0.666,2.139-0.891c0.463-0.146,0.941-0.217,1.422-0.217c0.885,0,1.697,0.234,2.383,0.678
		c0.553,0.371,0.713,0.752,0.529,1.301c-0.201,0.58-0.549,1.145-1.035,1.699c-0.031,0.029-0.064,0.076-0.109,0.117
		c-0.205,0.258-0.561,0.672-0.854,0.672c-0.088,0-0.172-0.035-0.236-0.117C17.275,16.498,17.086,16.18,16.904,15.885 M22.502,16.691
		c-0.068,0.484-0.266,0.904-0.559,1.168c-0.252,0.234-0.541,0.287-0.924,0.287h-0.197c-0.074,0-0.139-0.002-0.215-0.002
		c-0.238,0-0.439,0.072-0.6,0.24c-0.465,0.459-0.445,1.484-0.445,2.156v0.213l-0.041-0.043c-0.592-0.537-1.127-1.047-1.941-1.172
		c-0.129-0.023-0.26-0.023-0.395-0.023c-0.246,0-0.512,0.023-0.777,0.096c-0.23,0.053-0.432,0.141-0.643,0.24
		c-0.074,0.037-0.146,0.07-0.242,0.107c-0.102,0.041-0.23,0.086-0.305,0.086c-0.023,0-0.043-0.01-0.049-0.01
		c-0.006-0.012-0.006-0.035,0-0.049c0.078-0.283,0.385-0.484,0.613-0.635l0.059-0.049c0.613-0.406,1.193-0.814,1.744-1.26
		c1.025-0.789,2.158-1.791,2.725-3.148c0.318-0.76,0.459-1.639,0.4-2.535l-0.006-0.047c-0.021-0.367-0.053-0.754-0.195-1.084
		c-0.123-0.283-0.342-0.42-0.57-0.555c-0.049-0.027-0.088-0.053-0.131-0.072c0.113-0.211,0.412-0.736,0.762-0.736
		c0.135,0,0.258,0.078,0.381,0.25c0.408,0.559,0.598,1.23,0.768,1.822c0.02,0.104,0.059,0.209,0.09,0.33
		C22.125,13.416,22.668,15.336,22.502,16.691 M29.541,14.516c-0.564,0.328-1.066,0.473-1.545,0.473h-0.045
		c-0.309,0-0.619-0.053-0.928-0.086c-0.266-0.031-0.537-0.072-0.797-0.084c-0.652-0.031-1.17,0.076-1.576,0.324
		c-0.277,0.166-0.484,0.4-0.68,0.646c-0.135,0.166-0.275,0.342-0.455,0.484c-0.047,0.049-0.117,0.096-0.182,0.096h-0.006
		c-0.078,0-0.084-0.059-0.078-0.166v-0.066c-0.01-0.246-0.045-0.492-0.072-0.736l-0.025-0.129c-0.059-0.412-0.117-0.859-0.219-1.285
		c-0.02-0.084-0.041-0.164-0.084-0.26c-0.117-0.381-0.264-0.854,0.031-1.096c0.188-0.152,0.484-0.176,0.697-0.189
		c0,0,0.215-0.027,0.471-0.033h0.092c0.277,0,0.568,0.016,0.838,0.059c0.531,0.07,1.08,0.207,1.74,0.422
		c0.365,0.121,0.717,0.25,1.07,0.379c0.797,0.307,1.623,0.621,2.494,0.766C30.006,14.236,29.771,14.393,29.541,14.516"/>
	<path fill="#414042" d="M38.473,20.918c-0.244-1.531-0.627-3.029-1.139-4.49c-0.482-1.391-1.104-2.746-1.852-4.031
		c-0.582-0.992-1.232-1.936-1.969-2.83c-0.932-1.133-1.973-2.17-3.141-3.072c-1.125-0.879-2.363-1.621-3.686-2.186
		c-1.307-0.561-2.693-0.943-4.109-1.127c-1.436-0.188-2.906-0.176-4.348,0.055c-1.396,0.217-2.771,0.635-4.068,1.23
		c-1.297,0.594-2.527,1.375-3.643,2.271C9.389,7.656,8.35,8.717,7.443,9.871c-0.885,1.133-1.664,2.346-2.324,3.625
		c-0.678,1.342-1.232,2.736-1.654,4.17c-0.438,1.508-0.742,3.041-0.902,4.602c-0.176,1.611-0.201,3.248-0.078,4.863
		c0.123,1.58,0.373,3.137,0.768,4.656c0.389,1.465,0.896,2.889,1.537,4.256c0.621,1.316,1.363,2.564,2.217,3.727
		c0.961,1.311,3.408,3.637,3.438,3.637c2.883,2.357,6.379,3.76,10.156,3.76h0.008c1.436,0,2.875-0.207,4.256-0.607
		c1.371-0.395,2.674-0.988,3.895-1.719c1.242-0.756,2.379-1.668,3.412-2.688c1.02-1.027,1.936-2.17,2.725-3.385
		c0.795-1.227,1.479-2.537,2.033-3.887c0.576-1.42,1.014-2.881,1.313-4.379c0.336-1.564,0.51-3.152,0.555-4.762
		C38.824,24.133,38.73,22.518,38.473,20.918 M6.248,31.457H5.791l0.414-1.574c0.043-0.123,0.064-0.111,0.076-0.059
		C6.27,30.385,6.264,30.939,6.248,31.457 M6.482,27.162L5.551,26.73c-0.045-0.014-0.043-0.035,0-0.035h2.004
		c0.064,0,0.064,0.021,0.018,0.035L6.67,27.162C6.629,27.189,6.541,27.189,6.482,27.162 M5.314,26.289l1.037-0.742
		c0,0.24,0,0.49-0.006,0.742H5.314z M5.656,23.789h1.787c0.047,0,0.059,0.02,0.014,0.035l-0.799,0.373
		c-0.053,0.021-0.131,0.021-0.176,0.012l-0.826-0.385C5.609,23.803,5.615,23.789,5.656,23.789 M5.439,23.416l0.965-0.627
		c-0.006,0.193-0.006,0.416-0.018,0.627H5.439z M6.74,22.801l0.943,0.615H6.748C6.748,23.205,6.74,23.004,6.74,22.801 M6.777,25.547
		l1.055,0.742H6.793C6.787,26.039,6.777,25.787,6.777,25.547 M6.871,31.457c0-0.518-0.016-1.072-0.016-1.633
		c0-0.041,0.027-0.064,0.064,0.049l0.422,1.584H6.871z M20.6,45.57c-2.77,0-5.387-0.84-7.705-2.334
		c1.797-0.006,3.572,0.229,5.336,0.486c1.775,0.266,3.547,0.563,5.328,0.744c0.684,0.064,1.377,0.123,2.057,0.146
		C24.037,45.24,22.352,45.57,20.6,45.57 M28.74,42.953c-1.758,0.182-3.533,0.092-5.293-0.096c-1.752-0.188-3.504-0.496-5.236-0.742
		c-1.795-0.26-3.605-0.479-5.42-0.467c-0.619,0.008-1.238,0.031-1.852,0.096c-0.576-0.514-1.119-1.068-1.656-1.67
		c1.824-0.258,3.684-0.258,5.51-0.123c1.85,0.135,3.684,0.395,5.512,0.672c0.918,0.135,1.834,0.271,2.746,0.395
		c0.463,0.063,2.287,0.197,2.717,0.197c1.848,0,3.684-0.135,5.506-0.432C30.484,41.598,29.637,42.314,28.74,42.953 M32.918,38.826
		c-1.768,0.426-3.572,0.654-5.381,0.742c-0.896,0.053-1.803,0.078-2.713,0.025c-0.91-0.037-1.82-0.186-2.723-0.32
		c-1.822-0.26-3.637-0.549-5.469-0.756c-1.826-0.199-3.666-0.311-5.494-0.221c-0.996,0.059-1.996,0.162-2.977,0.357
		c-0.336-0.473-0.66-0.959-0.957-1.467c1.623-0.33,3.256-0.543,4.916-0.602c1.666-0.059,3.338,0.053,4.994,0.266
		c1.605,0.205,3.195,0.514,4.799,0.723c1.467,0.201,2.936,0.328,4.416,0.328h0.012c1.531,0,3.057-0.127,4.58-0.387
		c1.105-0.174,2.203-0.4,3.281-0.684C33.809,37.529,33.377,38.195,32.918,38.826 M8.484,33.201c-0.764-0.504-0.865-1.33-0.822-1.484
		l2.373-5.594c0.049-0.1,0.072-0.064,0.055,0L8.484,33.201z M10.066,27.932c-0.039,2.5-0.07,4.836-0.09,5.949
		c-0.422-0.125-0.859-0.254-1.227-0.52l1.258-5.541C10.035,27.768,10.055,27.852,10.066,27.932 M9.428,23.029h1.789
		c0.045,0,0.045,0.018,0.006,0.043l-0.809,0.381c-0.037,0.021-0.113,0.021-0.16,0l-0.832-0.381
		C9.369,23.047,9.369,23.029,9.428,23.029 M9.213,22.664l0.938-0.613c-0.008,0.189-0.008,0.402-0.008,0.613H9.213z M10.52,22.059
		l0.924,0.605h-0.912C10.531,22.453,10.52,22.252,10.52,22.059 M12.43,30.256c-0.043,1.201-0.059,2.398-0.084,3.338
		c-0.004,0.002-0.018,0.01-0.027,0.01l-0.791-3.453l0.412-1.014L12.43,30.256z M12.107,28.758l0.322-0.756
		c0.02-0.045,0.047-0.021,0.053,0.014c-0.006,0.482-0.025,1.002-0.033,1.531L12.107,28.758z M11.32,30.625l0.768,3.145
		c-0.266,0.111-0.602,0.162-0.902,0.213c-0.105,0.012-0.189,0.012-0.299,0.021c-0.066,0.012-0.137,0.012-0.207,0.012
		c0-0.422-0.006-1.066-0.012-1.85L11.32,30.625z M10.654,31.424c-0.012-1.039-0.027-2.254-0.047-3.514
		c0.008-0.102,0.029-0.178,0.072-0.025l0.529,2.234L10.654,31.424z M11.398,29.654l-0.809-3.531c-0.006-0.064,0.006-0.1,0.064,0
		l1.133,2.635L11.398,29.654z M12.967,30.752v-0.508c-0.025-0.92-0.047-1.352-0.072-2.197c0-0.066,0.031-0.104,0.072-0.031
		l1.414,3.525c-0.23,0.471-0.283,0.631-0.633,1.002L12.967,30.752z M13.521,32.779c-0.143,0.158-0.33,0.313-0.496,0.447
		c-0.006-0.484-0.031-1.109-0.035-1.674L13.521,32.779z M14.957,31.424l1.621-3.48c-0.027,1.002-0.064,2.43-0.1,3.48h-0.652
		C15.59,31.424,15.195,31.436,14.957,31.424 M26.549,26.967h2.332c0.064,0,0.076,0.021,0.035,0.047c-0.01,0-1.066,0.508-1.066,0.508
		c-0.078,0.035-0.164,0.027-0.221,0l-1.094-0.508C26.465,26.988,26.477,26.967,26.549,26.967 M26.277,26.508l1.223-0.879
		c0,0.254-0.006,0.842-0.006,0.879H26.277z M26.719,23.059c0,0,0.033-0.012,0.039-0.012h1.947c0.035,0,0.041,0,0.047,0.012h0.006
		h-0.006c0.012,0.008,0.006,0.016-0.031,0.029L27.842,23.5c-0.045,0.025-0.135,0.025-0.182,0l-0.908-0.412
		C26.719,23.074,26.711,23.066,26.719,23.059 M26.512,22.635l1.051-0.75c-0.014,0.24-0.014,0.49-0.014,0.75H26.512z M27.92,21.898
		l1.051,0.736h-1.039C27.932,22.381,27.926,22.145,27.92,21.898 M27.965,25.629l1.221,0.879h-1.201
		C27.979,26.213,27.979,25.916,27.965,25.629 M31.51,24.689h2.004c0.053,0,0.059,0.012,0,0.037l-0.885,0.436
		c-0.059,0.023-0.135,0.023-0.193,0l-0.932-0.436C31.457,24.701,31.457,24.689,31.51,24.689 M31.264,24.285l1.047-0.748
		c-0.012,0.252-0.012,0.492-0.012,0.748H31.264z M32.713,23.543l1.066,0.742h-1.055C32.725,24.029,32.725,23.789,32.713,23.543
		 M32.266,27.84c-0.043,2.416-0.078,5.025-0.109,6.854c-0.588,0.207-1.094,0.252-1.543,0.219l0.992-4.443l0.594-2.617
		C32.223,27.793,32.254,27.756,32.266,27.84 M32.123,26.801L30.391,34.5l-0.754-2.074l0.006-0.006l2.373-5.703
		C32.078,26.607,32.15,26.529,32.123,26.801 M30.199,34.848c-0.535-0.123-0.969-0.389-1.305-0.672l0.576-1.35L30.199,34.848z
		 M28.682,33.957c-0.33-0.354-0.525-0.705-0.596-0.848c-0.018-1.174-0.049-2.912-0.07-4.777l1.313,4.063L28.682,33.957z
		 M25.828,33.014h-2.871l4.266-4.811L25.828,33.014z M27.461,28.332c-0.02,1.08-0.053,4.559-0.053,4.682h-1.279L27.461,28.332z
		 M32.777,27.84c-0.006-0.084,0.037-0.059,0.07,0.012l1.188,5.162c-0.256,0.613-0.781,1.066-1.168,1.322
		C32.854,33.396,32.789,27.857,32.777,27.84 M34.34,32.99l-1.455-6.137c-0.055-0.369,0.041-0.234,0.123-0.1l2.676,6.236H34.34z
		 M36.723,29.996c-0.191,0.99-0.451,1.945-0.762,2.895l-3.203-7.604l1.412-0.619c0.145-0.076,0.145-0.289,0.004-0.361
		c0,0-1.385-0.982-1.461-1.035l-0.029-2.33c0.164-0.023,0.324-0.104,0.5-0.129c0.182-0.025,0.367,0.006,0.543,0.033
		c0.166,0.025,0.336,0.051,0.502-0.002c0.156-0.043,0.293-0.127,0.406-0.23c-0.359-0.008-0.656-0.238-0.973-0.377
		c-0.164-0.084-0.342-0.133-0.52-0.148c-0.178-0.018-0.385-0.029-0.561,0.016c-0.012-0.129-0.023-0.271-0.045-0.422h-0.078
		c-0.107,0.635-0.107,1.338-0.107,1.979c-0.01,0.449-0.01,0.916-0.016,1.369c0,0.07,0,0.154-0.012,0.242l-1.445,1.029
		c-0.143,0.072-0.143,0.283,0,0.355v0.012l1.367,0.619L29.494,32l-1.426-4.326l1.574-0.73c0.158-0.09,0.17-0.33,0.006-0.414
		c0,0-1.484-1.035-1.684-1.178c0-0.541-0.014-1.133-0.014-1.65l1.436-0.672v-0.008c0.141-0.064,0.154-0.277,0.006-0.357
		c0,0-1.285-0.908-1.484-1.051c-0.008-1.053-0.01-2.111-0.029-3.17c0.078,0,0.158-0.025,0.242-0.047
		c0.094-0.025,0.182-0.059,0.277-0.076c0.182-0.025,0.359,0,0.541,0.029c0.176,0.035,0.354,0.047,0.525,0
		c0.152-0.043,0.295-0.133,0.418-0.225c-0.367-0.012-0.666-0.236-0.988-0.383c-0.154-0.076-0.344-0.125-0.516-0.146
		c-0.182-0.02-0.383-0.031-0.543,0.021c-0.016-0.137-0.039-0.277-0.07-0.436h-0.064v0.014c-0.105,0.582-0.105,1.164-0.105,1.756
		c0,0.545,0,1.084-0.023,1.621c-0.006,0.346-0.01,0.699-0.01,1.041l-1.477,1.051c-0.135,0.068-0.135,0.281,0,0.357l1.445,0.68
		c0,0.508-0.012,1.115-0.018,1.65l-1.682,1.178c-0.168,0.078-0.168,0.324,0,0.4l1.539,0.744l-4.814,5.34
		c-0.09,0-0.689,0.012-0.773,0.123c-0.129,0.102-0.129,0.254-0.07,0.385c0.064,0.17,0.213,0.293,0.373,0.383
		c0.076,0.047,0.168,0.09,0.258,0.123c0.008,0,0.02,0.014,0.02,0.025c0,0,0.439,1.436,2.301,2.113H24.65c0,0,0.059,0.02,0.039,0.057
		c0,0.008,0,0.021-0.006,0.021c-0.02,0-0.033,0.012-0.047,0.012c-1.781-0.105-3.525-0.4-5.27-0.672
		c-0.672-0.105-1.338-0.213-2.01-0.305c-0.453-0.049-0.902-0.113-1.361-0.186c-0.035-0.016-0.059-0.027-0.07-0.053l-0.014-0.012
		v-0.012h0.014c0-0.01,0.018-0.021,0.023-0.035c0.012,0,0.016-0.012,0.016-0.012c2.459-0.73,2.977-2.527,2.977-2.527
		c0.037-0.018,0.059-0.037,0.096-0.049c0.07-0.027,0.137-0.059,0.201-0.1c0.148-0.094,0.299-0.211,0.369-0.385
		c0.057-0.135,0.043-0.279-0.07-0.381c-0.098-0.125-0.795-0.117-0.795-0.117v0.006h-0.131c0-0.385-0.006-1.387-0.027-2.029
		c0.072,0.029,0.158,0.008,0.234-0.012c0.096-0.023,0.174-0.053,0.271-0.076c0.195-0.047,0.379-0.035,0.561,0
		c0.188,0.037,0.377,0.064,0.559,0.018c0.166-0.043,0.314-0.135,0.432-0.236c-0.361-0.01-0.666-0.254-0.996-0.395
		c-0.172-0.078-0.348-0.123-0.537-0.137c-0.182-0.016-0.406-0.027-0.566,0.051c-0.012-0.162-0.018-0.291-0.045-0.387h-0.059
		c-0.096,0.543-0.096,2.459-0.109,3.203h-1.234c-0.031-1.344-0.096-3.145-0.123-4.303l1.066-2.293
		c0.15,0.059,0.316,0.07,0.459,0.129c0.182,0.059,0.311,0.158,0.445,0.271c0.131,0.105,0.266,0.209,0.426,0.26
		c0.17,0.059,0.367,0.051,0.537,0.021c-0.307-0.176-0.447-0.518-0.654-0.803c-0.09-0.141-0.225-0.258-0.367-0.363
		c-0.141-0.119-0.322-0.23-0.506-0.271c0.041-0.129,0.1-0.295,0.105-0.379c-0.006-0.008,0-0.033-0.033-0.053
		c0,0-0.012-0.006-0.025-0.006c-0.047,0.006-0.051,0.037-0.082,0.084c-0.111,0.111-0.229,0.342-0.248,0.375l-1.143,2.453
		c-0.012-0.387-0.025-0.775-0.025-1.16c0-0.488-0.021-0.963-0.104-1.443h-0.07c-0.104,0.576-0.109,1.166-0.119,1.766
		c0,0.521-0.023,1.051-0.029,1.594l-1.971,4.072l-1.756-4.318c-0.021-0.543-0.035-1.076-0.039-1.605
		c-0.014-0.613-0.014-1.227-0.115-1.822h-0.068c-0.107,0.596-0.107,1.193-0.113,1.781c0,0.549-0.018,1.092-0.035,1.641l-0.566,1.33
		l-1.373-3.213c-0.004-0.537-0.016-1.061-0.021-1.566l1.254-0.592c0.123-0.059,0.135-0.246,0-0.318c0,0-1.055-0.764-1.279-0.918
		c-0.018-1.109-0.027-2.209-0.047-3.324c0.09,0,0.164-0.025,0.24-0.047c0.084-0.025,0.18-0.059,0.283-0.076
		c0.182-0.025,0.355,0,0.537,0.029c0.172,0.035,0.348,0.047,0.518,0c0.148-0.043,0.295-0.133,0.42-0.225
		c-0.35-0.012-0.648-0.225-0.963-0.383c-0.156-0.076-0.33-0.125-0.512-0.141c-0.176-0.025-0.389-0.043-0.57,0.016
		c-0.012-0.143-0.041-0.293-0.061-0.436h-0.064c-0.129,0.707-0.117,1.416-0.117,2.127c-0.012,0.697-0.02,1.387-0.021,2.07
		c-0.006,0.137-0.006,0.26-0.012,0.389l-1.287,0.918c-0.123,0.059-0.123,0.25,0,0.318l1.256,0.592c-0.008,0.576-0.02,1.5-0.02,1.566
		l-2.551,6.006l-0.383-1.385h0.336h0.16c0.074,0,0.152-0.023,0.211-0.045c0.049-0.014,0.172-0.049,0.172-0.121
		c0-0.064-0.111-0.104-0.154-0.117c-0.064-0.021-0.148-0.045-0.229-0.045H7.084L6.83,28.498c-0.006-0.387-0.012-0.787-0.023-1.168
		l1.406-0.658c0.143-0.078,0.156-0.291,0.014-0.361c0,0-1.355-0.959-1.455-1.023c0-0.277,0-0.672-0.018-0.934l1.277-0.594
		c0.131-0.059,0.131-0.26,0.008-0.318c0,0-1.131-0.813-1.311-0.93c-0.006-0.932-0.016-1.545-0.021-1.615
		c0.148,0.012,0.311-0.072,0.447-0.096c0.16-0.035,0.316-0.02,0.477,0.012c0.148,0.025,0.303,0.047,0.459,0.012
		c0.143-0.037,0.279-0.117,0.395-0.211C8.162,20.605,7.896,20.4,7.619,20.27c-0.148-0.07-0.305-0.104-0.465-0.117
		c-0.16-0.023-0.348-0.035-0.484,0.021c-0.021-0.115-0.041-0.246-0.07-0.375H6.527c-0.092,0.506-0.104,1.014-0.104,1.525
		c-0.012,0.443-0.012,0.742-0.02,1.188l-1.303,0.93c-0.139,0.059-0.139,0.26,0,0.318l1.27,0.594c0,0.268,0,0.656-0.02,0.934
		l-1.42,1.021c-0.148,0.066-0.148,0.279,0,0.35l1.391,0.672c0,0.381-0.01,0.773-0.021,1.156l-0.25,0.969H5.475
		c-0.084,0-0.16,0.023-0.219,0.033c-0.047,0.025-0.158,0.064-0.158,0.129c0,0.063,0.094,0.096,0.139,0.121
		c0.07,0.021,0.154,0.045,0.238,0.045h0.154h0.006h0.322L5.52,31.457H4.814c-0.426-1.607-0.684-3.264-0.773-4.922
		c-0.092-1.66-0.033-3.33,0.199-4.986c0.227-1.525,0.588-3.035,1.098-4.502c0.484-1.387,1.098-2.73,1.854-3.998
		c0.389-0.666,0.828-1.309,1.293-1.926c1.912,0.641,4.393,0.059,4.393,0.059c2.229-0.406,3.615-0.342,4.43-0.213l0.422,0.072
		c0.059-0.279,0.082-0.473,0.166-0.725c-2.33-0.736-4.953-0.387-4.953-0.387c-1.596,0.154-2.564-0.174-3.063-0.453
		c0,0,1.008-1.064,1.826-1.654C12.43,8.34,13.326,8.6,14.182,8.748c0.559,0.098,1.129,0.146,1.691,0.27
		c0.561,0.123,1.125,0.299,1.668,0.484c0.188,0.078,0.445,0.201,0.572,0.254c0.098-0.232,0.24-0.439,0.383-0.639l-0.355-0.234
		c-0.73-0.412-1.402-0.625-2.17-0.854c-0.506-0.16-0.988-0.334-1.467-0.574c-0.646-0.342-1.041-0.768-1.084-0.801
		c0,0,1.109-0.678,2.156-1.061c0.484,0.678,1.381,1.061,1.994,1.592c0.867,0.729,1.32,1.426,1.359,1.504
		c0.207-0.154,0.393-0.26,0.656-0.361c-0.348-0.756-0.832-1.633-1.426-2.182c-0.266-0.26-0.686-0.682-0.789-1.125
		c0,0,1.389-0.342,2.461-0.361l0.402,3.514C20.375,8.141,20.6,8.152,20.6,8.152s0.143-0.012,0.377,0.021l0.4-3.514
		c0,0,0.943,0.049,1.711,0.191c0.426,0.092,0.748,0.17,0.748,0.17c-0.113,0.432-0.514,0.879-0.768,1.125
		c-0.613,0.561-1.078,1.414-1.439,2.182c0.213,0.096,0.443,0.176,0.664,0.361c0.4-0.596,0.898-1.117,1.359-1.504
		c0.596-0.531,1.49-0.932,1.975-1.592c0.123,0.047,0.66,0.248,1.529,0.688l0.641,0.373c-0.025,0.02-0.73,0.596-1.086,0.801
		c-0.465,0.266-0.961,0.414-1.479,0.574c-0.756,0.229-1.439,0.441-2.164,0.854l-0.359,0.225c0.141,0.176,0.283,0.395,0.4,0.648
		c0.131-0.066,0.385-0.189,0.561-0.254c0.549-0.186,1.109-0.361,1.686-0.484c0.549-0.123,1.109-0.172,1.686-0.27
		c0.838-0.148,1.756-0.42,2.465-0.926c0.908,0.699,1.816,1.662,1.816,1.662c-0.496,0.271-1.459,0.6-3.043,0.445
		c0,0-2.621-0.35-4.957,0.373c0.076,0.219,0.107,0.371,0.146,0.713l0.473-0.07c0.824-0.117,2.182-0.17,4.41,0.236
		c0,0,2.463,0.582,4.361-0.049c0.205,0.25,0.381,0.496,0.561,0.754c0.82,1.188,1.506,2.467,2.068,3.797
		c0.594,1.402,1.045,2.869,1.35,4.355c0.336,1.563,0.496,3.166,0.514,4.777C37.221,26.555,37.072,28.299,36.723,29.996"/>
</g>
</svg>
