<?xml version="1.0" encoding="iso-8859-1"?>
<!-- Generator: Adobe Illustrator 19.0.0, SVG Export Plug-In . SVG Version: 6.00 Build 0)  -->
<svg version="1.1" id="Layer_1" xmlns="http://www.w3.org/2000/svg" xmlns:xlink="http://www.w3.org/1999/xlink" x="0px" y="0px"
	 viewBox="0 0 437.418 437.418" style="enable-background:new 0 0 437.418 437.418;" xml:space="preserve">
<g id="XMLID_613_">
	<g id="XMLID_617_">
		<g id="XMLID_615_">
			
				<rect id="XMLID_616_" x="103.719" y="354.669" transform="matrix(-0.8682 -0.4961 0.4961 -0.8682 25.8342 796.8173)" style="fill:#ACAAB0;" width="29.997" height="80.618"/>
		</g>
	</g>
	<g id="XMLID_622_">
		<g id="XMLID_620_">
			
				<rect id="XMLID_621_" x="278.405" y="379.973" transform="matrix(-0.4961 -0.8682 0.8682 -0.4961 133.904 867.6509)" style="fill:#ACAAB0;" width="80.618" height="29.997"/>
		</g>
	</g>
	<path id="XMLID_624_" style="fill:#DF6246;" d="M278.709,0h-120c-55.229,0-100,44.771-100,100v250c0,11.046,8.954,20,20,20h280
		c11.046,0,20-8.954,20-20V100C378.709,44.771,333.937,0,278.709,0z"/>
	<path id="XMLID_625_" style="fill:#DB380E;" d="M98.709,19.996c-24.288,18.244-40,47.289-40,80.004v250c0,11.046,8.954,20,20,20h20
		V19.996z"/>
	<path id="XMLID_626_" style="fill:#E17858;" d="M338.709,19.996V370h20c11.046,0,20-8.954,20-20V100
		C378.709,67.284,362.997,38.24,338.709,19.996z"/>
	<circle id="XMLID_629_" style="fill:#FFFFFF;" cx="148.709" cy="280" r="30"/>
	<circle id="XMLID_632_" style="fill:#FFFFFF;" cx="288.709" cy="280" r="30"/>
	<path id="XMLID_633_" style="fill:#98C8ED;" d="M318.709,210c40,0,60-40,60-100h-320c0,60,20,100,60,100H318.709z"/>
	<g id="XMLID_637_">
		<g id="XMLID_852_">
			<path id="XMLID_853_" style="fill:#D1E3FA;" d="M197.141,110l-96.756,96.756c5.554,2.128,11.66,3.244,18.324,3.244h91.568
				l100-100H197.141z"/>
		</g>
	</g>
</g>
<g>
</g>
<g>
</g>
<g>
</g>
<g>
</g>
<g>
</g>
<g>
</g>
<g>
</g>
<g>
</g>
<g>
</g>
<g>
</g>
<g>
</g>
<g>
</g>
<g>
</g>
<g>
</g>
<g>
</g>
</svg>
